/* XPM */
static const char * logo_xpm[] = {
"128 128 3 1",
" 	c None",
".	c #000000",
"+	c #FFFFFF",
"................................................................................................................................",
"................................................................................................................................",
"................................................................................................................................",
"................................................................................................................................",
"................................................................................................................................",
".....++++++++++++++++++++++++++++++++++++++++++++++++++++++++++++++++++++++++++++++++++++++++++++++++++++++++++++++++++++++.....",
".....++++++++++++++++++++++++++++++++++++++++++++++++++++++++++++++++++++++++++++++++++++++++++++++++++++++++++++++++++++++.....",
".....++++++++++++++++++++++++++++++++++++++++++++++++++++++++++++++++++++++++++++++++++++++++++++++++++++++++++++++++++++++.....",
".....++++++++++++++++++++++++++++++++++++++++++++++++++++++++++++++++++++++++++++++++++++++++++++++++++++++++++++++++++++++.....",
".....++++++++++++++++++++++++++++++++++++++++++++++++++++++++++++++++++++++++++++++++++++++++++++++++++++++++++++++++++++++.....",
".....++++++++++++++++++++++++++++++++++++++++++++++++++++++++++++++++++++++++++++++++++++++++++++++++++++++++++++++++++++++.....",
".....++++++++++++++++++++++++++++++++++++++++++++++++++++++++++++++++++++++++++++++++++++++++++++++++++++++++++++++++++++++.....",
".....++++++++++++++++++++++++++++++++++++++++++++++++++++++++++++++++++++++++++++++++++++++++++++++++++++++++++++++++++++++.....",
".....++++++++++++++++++++++++++++++++++++++++++++++++++++++++++++++++++++++++++++++++++++++++++++++++++++++++++++++++++++++.....",
".....++++++++++++++++++++++++++++++++++++++++++++++++++++++++++++++++++++++++++++++++++++++++++++++++++++++++++++++++++++++.....",
".....++++++++++++++++++++++++++++++++++++++++++++++++++++++++++++++++++++++++++++++++++++++++++++++++++++++++++++++++++++++.....",
".....++++++++++++++++++++++++++++++++++++++++++++++++++++++++++++++++++++++++++++++++++++++++++++++++++++++++++++++++++++++.....",
".....++++++++++++++++++++++++++++++++++++++++++++++++++++++++++++++++++++++++++++++++++++++++++++++++++++++++++++++++++++++.....",
".....++++++++++++++++++++++++++++++++++++++++++++++++++++++++++++++++++++++++++++++++++++++++++++++++++++++++++++++++++++++.....",
".....++++++++++++++++++++++++++++++++++++++++++++++++++++++++++++++++++++++++++++++++++++++++++++++++++++++++++++++++++++++.....",
".....++++++++++++++++++++++++++++++++++++++++++++++++++++++++++++++++++++++++++++++++++++++++++++++++++++++++++++++++++++++.....",
".....++++++++++++++++++++++++++++++++++++++++++++++++++++++++++++++++++++++++++++++++++++++++++++++++++++++++++++++++++++++.....",
".....++++++++++++++++++++++++++++++++++++++++++++++++++++++++++++++++++++++++++++++++++++++++++++++++++++++++++++++++++++++.....",
".....++++++++++++++++++++++++++++++++++++++++++++++++++++++++++++++++++++++++++++++++++++++++++++++++++++++++++++++++++++++.....",
".....++++++++++++++++++++++++++++++++++++++++++++++++++++++++++++++++++++++++++++++++++++++++++++++++++++++++++++++++++++++.....",
".....++++++++++++++++++++++++++++++++++++++++++++++++++++++++++++++++++++++++++++++++++++++++++++++++++++++++++++++++++++++.....",
".....++++++++++++++++++++++++++++++++++++++++++++++++++++++++++++++++++++++++++++++++++++++++++++++++++++++++++++++++++++++.....",
".....++++++++++++++++++++++++++++++++++++++++++++++++++++++++++++++++++++++++++++++++++++++++++++++++++++++++++++++++++++++.....",
".....++++++++++++++++++++++++++++++++++++++++++++++++++++++++++++++++++++++++++++++++++++++++++++++++++++++++++++++++++++++.....",
".....++++++++++++++++++++++++++++++++++++++++++++++++++++++++++++++++++++++++++++++++++++++++++++++++++++++++++++++++++++++.....",
".....++++++++++++++++++++++++++++++++++++++++++++++++++++++++++++++++++++++++++++++++++++++++++++++++++++++++++++++++++++++.....",
".....++++++++++++++++++++++++++++++++++++++++++++++++++++++++++++++++++++++++++++++++++++++++++++++++++++++++++++++++++++++.....",
".....+++++++++++++++++++++++++++                                                                +++++++++++++++++++++++++++.....",
".....+++++++++++++++++++++++++++                                                                +++++++++++++++++++++++++++.....",
".....+++++++++++++++++++++++++++                                                                +++++++++++++++++++++++++++.....",
".....+++++++++++++++++++++++++++                                                                +++++++++++++++++++++++++++.....",
".....+++++++++++++++++++++++++++                                                                +++++++++++++++++++++++++++.....",
".....+++++++++++++++++++++++++++                                                                +++++++++++++++++++++++++++.....",
".....+++++++++++++++++++++++++++                                                                +++++++++++++++++++++++++++.....",
".....+++++++++++++++++++++++++++                                                                +++++++++++++++++++++++++++.....",
".....+++++++++++++++++++++++++++                                                                +++++++++++++++++++++++++++.....",
".....+++++++++++++++++++++++++++                                                                +++++++++++++++++++++++++++.....",
".....+++++++++++++++++++++++++++                                                                +++++++++++++++++++++++++++.....",
".....+++++++++++++++++++++++++++                                                                +++++++++++++++++++++++++++.....",
".....+++++++++++++++++++++++++++................................................................+++++++++++++++++++++++++++.....",
".....+++++++++++++++++++++++++++................................................................+++++++++++++++++++++++++++.....",
".....+++++++++++++++++++++++++++................................................................+++++++++++++++++++++++++++.....",
".....+++++++++++++++++++++++++++................................................................+++++++++++++++++++++++++++.....",
".....+++++++++++++++++++++++++++................................................................+++++++++++++++++++++++++++.....",
".....+++++++++++++++++++++++++++................................................................+++++++++++++++++++++++++++.....",
".....+++++++++++++++++++++++++++................................................................+++++++++++++++++++++++++++.....",
".....+++++++++++++++++++++++++++................................................................+++++++++++++++++++++++++++.....",
".....+++++++++++++++++++++++++++................................................................+++++++++++++++++++++++++++.....",
".....+++++++++++++++++++++++++++................................................................+++++++++++++++++++++++++++.....",
".....+++++++++++++++++++++++++++................................................................+++++++++++++++++++++++++++.....",
".....+++++++++++++++++++++++++++................................................................+++++++++++++++++++++++++++.....",
".....+++++++++++++++++++++++++++................................................................+++++++++++++++++++++++++++.....",
".....+++++++++++++++++++++++++++................................................................+++++++++++++++++++++++++++.....",
".....+++++++++++++++++++++++++++................................................................+++++++++++++++++++++++++++.....",
".....+++++++++++++++++++++++++++................................................................+++++++++++++++++++++++++++.....",
".....+++++++++++++++++++++++++++................................................................+++++++++++++++++++++++++++.....",
".....+++++++++++++++++++++++++++................................................................+++++++++++++++++++++++++++.....",
".....+++++++++++++++++++++++++++................................................................+++++++++++++++++++++++++++.....",
".....+++++++++++++++++++++++++++................................................................+++++++++++++++++++++++++++.....",
".....+++++++++++++++++++++++++++................................................................+++++++++++++++++++++++++++.....",
".....+++++++++++++++++++++++++++................................................................+++++++++++++++++++++++++++.....",
".....+++++++++++++++++++++++++++................................................................+++++++++++++++++++++++++++.....",
".....+++++++++++++++++++++++++++................................................................+++++++++++++++++++++++++++.....",
".....+++++++++++++++++++++++++++................................................................+++++++++++++++++++++++++++.....",
".....+++++++++++++++++++++++++++................................................................+++++++++++++++++++++++++++.....",
".....+++++++++++++++++++++++++++................................................................+++++++++++++++++++++++++++.....",
".....+++++++++++++++++++++++++++................................................................+++++++++++++++++++++++++++.....",
".....+++++++++++++++++++++++++++................................................................+++++++++++++++++++++++++++.....",
".....+++++++++++++++++++++++++++................................................................+++++++++++++++++++++++++++.....",
".....+++++++++++++++++++++++++++................................................................+++++++++++++++++++++++++++.....",
".....+++++++++++++++++++++++++++................................................................+++++++++++++++++++++++++++.....",
".....+++++++++++++++++++++++++++................................................................+++++++++++++++++++++++++++.....",
".....+++++++++++++++++++++++++++................................................................+++++++++++++++++++++++++++.....",
".....+++++++++++++++++++++++++++................................................................+++++++++++++++++++++++++++.....",
".....+++++++++++++++++++++++++++................................................................+++++++++++++++++++++++++++.....",
".....+++++++++++++++++++++++++++................................................................+++++++++++++++++++++++++++.....",
".....+++++++++++++++++++++++++++................................................................+++++++++++++++++++++++++++.....",
".....+++++++++++++++++++++++++++................................................................+++++++++++++++++++++++++++.....",
".....+++++++++++++++++++++++++++................................................................+++++++++++++++++++++++++++.....",
".....+++++++++++++++++++++++++++                                                                +++++++++++++++++++++++++++.....",
".....+++++++++++++++++++++++++++                                                                +++++++++++++++++++++++++++.....",
".....+++++++++++++++++++++++++++                                                                +++++++++++++++++++++++++++.....",
".....+++++++++++++++++++++++++++                                                                +++++++++++++++++++++++++++.....",
".....+++++++++++++++++++++++++++                                                                +++++++++++++++++++++++++++.....",
".....+++++++++++++++++++++++++++                                                                +++++++++++++++++++++++++++.....",
".....+++++++++++++++++++++++++++                                                                +++++++++++++++++++++++++++.....",
".....+++++++++++++++++++++++++++                                                                +++++++++++++++++++++++++++.....",
".....+++++++++++++++++++++++++++                                                                +++++++++++++++++++++++++++.....",
".....+++++++++++++++++++++++++++                                                                +++++++++++++++++++++++++++.....",
".....+++++++++++++++++++++++++++                                                                +++++++++++++++++++++++++++.....",
".....+++++++++++++++++++++++++++                                                                +++++++++++++++++++++++++++.....",
".....++++++++++++++++++++++++++++++++++++++++++++++++++++++++++++++++++++++++++++++++++++++++++++++++++++++++++++++++++++++.....",
".....++++++++++++++++++++++++++++++++++++++++++++++++++++++++++++++++++++++++++++++++++++++++++++++++++++++++++++++++++++++.....",
".....++++++++++++++++++++++++++++++++++++++++++++++++++++++++++++++++++++++++++++++++++++++++++++++++++++++++++++++++++++++.....",
".....++++++++++++++++++++++++++++++++++++++++++++++++++++++++++++++++++++++++++++++++++++++++++++++++++++++++++++++++++++++.....",
".....++++++++++++++++++++++++++++++++++++++++++++++++++++++++++++++++++++++++++++++++++++++++++++++++++++++++++++++++++++++.....",
".....++++++++++++++++++++++++++++++++++++++++++++++++++++++++++++++++++++++++++++++++++++++++++++++++++++++++++++++++++++++.....",
".....++++++++++++++++++++++++++++++++++++++++++++++++++++++++++++++++++++++++++++++++++++++++++++++++++++++++++++++++++++++.....",
".....++++++++++++++++++++++++++++++++++++++++++++++++++++++++++++++++++++++++++++++++++++++++++++++++++++++++++++++++++++++.....",
".....++++++++++++++++++++++++++++++++++++++++++++++++++++++++++++++++++++++++++++++++++++++++++++++++++++++++++++++++++++++.....",
".....++++++++++++++++++++++++++++++++++++++++++++++++++++++++++++++++++++++++++++++++++++++++++++++++++++++++++++++++++++++.....",
".....++++++++++++++++++++++++++++++++++++++++++++++++++++++++++++++++++++++++++++++++++++++++++++++++++++++++++++++++++++++.....",
".....++++++++++++++++++++++++++++++++++++++++++++++++++++++++++++++++++++++++++++++++++++++++++++++++++++++++++++++++++++++.....",
".....++++++++++++++++++++++++++++++++++++++++++++++++++++++++++++++++++++++++++++++++++++++++++++++++++++++++++++++++++++++.....",
".....++++++++++++++++++++++++++++++++++++++++++++++++++++++++++++++++++++++++++++++++++++++++++++++++++++++++++++++++++++++.....",
".....++++++++++++++++++++++++++++++++++++++++++++++++++++++++++++++++++++++++++++++++++++++++++++++++++++++++++++++++++++++.....",
".....++++++++++++++++++++++++++++++++++++++++++++++++++++++++++++++++++++++++++++++++++++++++++++++++++++++++++++++++++++++.....",
".....++++++++++++++++++++++++++++++++++++++++++++++++++++++++++++++++++++++++++++++++++++++++++++++++++++++++++++++++++++++.....",
".....++++++++++++++++++++++++++++++++++++++++++++++++++++++++++++++++++++++++++++++++++++++++++++++++++++++++++++++++++++++.....",
".....++++++++++++++++++++++++++++++++++++++++++++++++++++++++++++++++++++++++++++++++++++++++++++++++++++++++++++++++++++++.....",
".....++++++++++++++++++++++++++++++++++++++++++++++++++++++++++++++++++++++++++++++++++++++++++++++++++++++++++++++++++++++.....",
".....++++++++++++++++++++++++++++++++++++++++++++++++++++++++++++++++++++++++++++++++++++++++++++++++++++++++++++++++++++++.....",
".....++++++++++++++++++++++++++++++++++++++++++++++++++++++++++++++++++++++++++++++++++++++++++++++++++++++++++++++++++++++.....",
".....++++++++++++++++++++++++++++++++++++++++++++++++++++++++++++++++++++++++++++++++++++++++++++++++++++++++++++++++++++++.....",
".....++++++++++++++++++++++++++++++++++++++++++++++++++++++++++++++++++++++++++++++++++++++++++++++++++++++++++++++++++++++.....",
".....++++++++++++++++++++++++++++++++++++++++++++++++++++++++++++++++++++++++++++++++++++++++++++++++++++++++++++++++++++++.....",
".....++++++++++++++++++++++++++++++++++++++++++++++++++++++++++++++++++++++++++++++++++++++++++++++++++++++++++++++++++++++.....",
".....++++++++++++++++++++++++++++++++++++++++++++++++++++++++++++++++++++++++++++++++++++++++++++++++++++++++++++++++++++++.....",
"................................................................................................................................",
"................................................................................................................................",
"................................................................................................................................",
"................................................................................................................................",
"................................................................................................................................"};
