/* XPM */
static const char * logo_xpm[] = {
"30 30 2 1",
" 	c None",
".	c #FF8833",
"                              ",
"                              ",
"                              ",
"                              ",
"..............................",
"..............................",
"...................       ....",
"..................         ...",
".................           ..",
"                            ..",
"                            ..",
"    ............            ..",
"     ...........              ",
"      ..........              ",
"                              ",
"                              ",
"        ........              ",
"         .......              ",
"          ......              ",
"           .....            ..",
"            .....           ..",
"             ....          ...",
"              ....        ....",
"               .....     .....",
"                ..............",
"                 .............",
"                              ",
"                              ",
"                              ",
"                              "};
